<svg width="32" height="32" viewBox="0 0 32 32" fill="none" xmlns="http://www.w3.org/2000/svg">
<g clip-path="url(#clip0_348_264)">
<path fill-rule="evenodd" clip-rule="evenodd" d="M15.1627 0.253244C15.6693 -0.0840892 16.3293 -0.0840892 16.8373 0.253244L31.3227 9.86658C31.7453 10.1466 32 10.6199 32 11.1279V20.8719C32 21.3786 31.7467 21.8532 31.3227 22.1346L16.8373 31.7479C16.3307 32.0839 15.6707 32.0839 15.1627 31.7479L0.677333 22.1332C0.46918 21.9952 0.298409 21.8077 0.180232 21.5877C0.0620544 21.3676 0.000138979 21.1217 0 20.8719L0 11.1279C0 10.6212 0.253333 10.1466 0.677333 9.86524L15.1627 0.253244ZM3.02933 13.9506V18.0279L6.08 15.9746L3.02933 13.9506V13.9506ZM8.812 17.7879L4.24 20.8639L14.4853 27.6639V21.5532L8.81333 17.7879H8.812ZM17.5147 21.5532V27.6626L27.76 20.8626L23.1867 17.7879L17.5147 21.5532V21.5532ZM25.9187 15.9759L28.972 18.0292V13.9492L25.9187 15.9759V15.9759ZM27.7467 11.1279L23.2 14.1452L17.5147 10.3212V4.33724L27.7467 11.1279ZM14.4853 4.33724V10.3199L8.80133 14.1439L4.25333 11.1279L14.4853 4.33724V4.33724ZM16 12.9532L11.5333 15.9586L16 18.9226L20.4667 15.9586L16 12.9532Z" fill="#4C5452"/>
</g>
<defs>
<clipPath id="clip0_348_264">
<rect width="32" height="32" fill="white"/>
</clipPath>
</defs>
</svg>
