<svg width="64" height="64" viewBox="0 0 64 64" fill="none" xmlns="http://www.w3.org/2000/svg">
<path d="M27.5333 11.512C28.6693 6.82933 35.3307 6.82933 36.4667 11.512C36.6371 12.2155 36.9713 12.8687 37.4419 13.4187C37.9125 13.9686 38.5064 14.3996 39.1751 14.6767C39.8438 14.9537 40.5684 15.0689 41.2901 15.013C42.0117 14.957 42.71 14.7315 43.328 14.3547C47.4427 11.848 52.1547 16.5573 49.648 20.6747C49.2717 21.2924 49.0465 21.9902 48.9907 22.7114C48.9349 23.4326 49.05 24.1567 49.3267 24.825C49.6035 25.4933 50.034 26.0869 50.5833 26.5575C51.1326 27.0281 51.7852 27.3624 52.488 27.5333C57.1707 28.6693 57.1707 35.3307 52.488 36.4667C51.7845 36.6371 51.1313 36.9713 50.5813 37.4419C50.0314 37.9125 49.6004 38.5064 49.3233 39.1751C49.0463 39.8438 48.9311 40.5684 48.987 41.2901C49.043 42.0117 49.2685 42.71 49.6453 43.328C52.152 47.4427 47.4427 52.1547 43.3253 49.648C42.7076 49.2717 42.0098 49.0465 41.2886 48.9907C40.5674 48.9349 39.8433 49.05 39.175 49.3267C38.5067 49.6035 37.9131 50.034 37.4425 50.5833C36.9719 51.1326 36.6376 51.7852 36.4667 52.488C35.3307 57.1707 28.6693 57.1707 27.5333 52.488C27.3629 51.7845 27.0287 51.1313 26.5581 50.5813C26.0875 50.0314 25.4936 49.6004 24.8249 49.3233C24.1562 49.0463 23.4316 48.9311 22.7099 48.987C21.9883 49.043 21.29 49.2685 20.672 49.6453C16.5573 52.152 11.8453 47.4427 14.352 43.3253C14.7283 42.7076 14.9535 42.0098 15.0093 41.2886C15.0651 40.5674 14.95 39.8433 14.6733 39.175C14.3965 38.5067 13.966 37.9131 13.4167 37.4425C12.8674 36.9719 12.2148 36.6376 11.512 36.4667C6.82933 35.3307 6.82933 28.6693 11.512 27.5333C12.2155 27.3629 12.8687 27.0287 13.4187 26.5581C13.9686 26.0875 14.3996 25.4936 14.6767 24.8249C14.9537 24.1562 15.0689 23.4316 15.013 22.7099C14.957 21.9883 14.7315 21.29 14.3547 20.672C11.848 16.5573 16.5573 11.8453 20.6747 14.352C23.3307 15.9733 26.7973 14.5387 27.5333 11.512Z" stroke="black" stroke-width="2" stroke-linecap="round" stroke-linejoin="round"/>
<path d="M40 32C40 34.1217 39.1571 36.1566 37.6569 37.6569C36.1566 39.1571 34.1217 40 32 40C29.8783 40 27.8434 39.1571 26.3431 37.6569C24.8429 36.1566 24 34.1217 24 32C24 29.8783 24.8429 27.8434 26.3431 26.3431C27.8434 24.8429 29.8783 24 32 24C34.1217 24 36.1566 24.8429 37.6569 26.3431C39.1571 27.8434 40 29.8783 40 32V32Z" stroke="black" stroke-width="2" stroke-linecap="round" stroke-linejoin="round"/>
</svg>
