<svg width="64" height="64" viewBox="0 0 64 64" fill="none" xmlns="http://www.w3.org/2000/svg">
<path d="M25.768 45.3333H38.2293H25.768ZM32 8V10.6667V8ZM48.9707 15.0293L47.0853 16.9147L48.9707 15.0293ZM56 32H53.3333H56ZM10.6667 32H8H10.6667ZM16.9147 16.9147L15.0293 15.0293L16.9147 16.9147ZM22.5707 41.4293C20.7063 39.5645 19.4368 37.1887 18.9226 34.6024C18.4084 32.0161 18.6727 29.3354 19.6819 26.8992C20.6912 24.4631 22.4002 22.3809 24.5928 20.916C26.7853 19.4511 29.3631 18.6692 32 18.6692C34.6369 18.6692 37.2147 19.4511 39.4072 20.916C41.5998 22.3809 43.3088 24.4631 44.3181 26.8992C45.3273 29.3354 45.5916 32.0161 45.0774 34.6024C44.5632 37.1887 43.2937 39.5645 41.4293 41.4293L39.968 42.888C39.1326 43.7236 38.4699 44.7156 38.0178 45.8073C37.5658 46.899 37.3332 48.0691 37.3333 49.2507V50.6667C37.3333 52.0812 36.7714 53.4377 35.7712 54.4379C34.771 55.4381 33.4145 56 32 56C30.5855 56 29.229 55.4381 28.2288 54.4379C27.2286 53.4377 26.6667 52.0812 26.6667 50.6667V49.2507C26.6667 46.864 25.7173 44.5733 24.032 42.888L22.5707 41.4293Z" stroke="black" stroke-width="2" stroke-linecap="round" stroke-linejoin="round"/>
</svg>
