<svg width="32" height="32" viewBox="0 0 32 32" fill="none" xmlns="http://www.w3.org/2000/svg">
<g clip-path="url(#clip0_350_263)">
<path d="M25.5 1.37328e-05H6.50001C5.64593 -0.00174365 4.7999 0.165184 4.01049 0.491217C3.22108 0.817251 2.50383 1.29597 1.8999 1.8999C1.29597 2.50383 0.817251 3.22108 0.491217 4.01049C0.165184 4.7999 -0.00174365 5.64593 1.37328e-05 6.50001V25.5C1.37328e-05 29.1 2.90001 32 6.50001 32H15.3C18.9 32 21.8 29.1 21.8 25.5V22.2H25.5C29.1 22.2 32 19.3 32 15.7V6.50001C32 2.90001 29.1 1.37328e-05 25.5 1.37328e-05ZM22 1.70001H25.5C26.7731 1.70001 27.9939 2.20573 28.8941 3.1059C29.7943 4.00608 30.3 5.22697 30.3 6.50001V10.1H22V1.70001V1.70001ZM20.1 12V20.6H11.8V12H20.1ZM11.8 1.60001H20.1V10.1H11.8V1.60001ZM1.70001 6.40001C1.70001 5.12697 2.20573 3.90608 3.1059 3.0059C4.00608 2.10573 5.22697 1.60001 6.50001 1.60001H10V10.1H1.70001V6.40001ZM10 12V20.6H1.60001V12H10ZM10 30.3H6.40001C5.12697 30.3 3.90608 29.7943 3.0059 28.8941C2.10573 27.9939 1.60001 26.7731 1.60001 25.5V22.4H10V30.3ZM20.1 25.6C20.1 26.8731 19.5943 28.0939 18.6941 28.9941C17.794 29.8943 16.5731 30.4 15.3 30.4H11.8V22.5H20.1V25.6V25.6ZM30.3 15.8C30.3 17.0731 29.7943 18.294 28.8941 19.1941C27.9939 20.0943 26.7731 20.6 25.5 20.6H22V12H30.3V15.8V15.8Z" fill="#4C5452"/>
</g>
<defs>
<clipPath id="clip0_350_263">
<rect width="32" height="32" fill="white"/>
</clipPath>
</defs>
</svg>
