<svg width="32" height="32" viewBox="0 0 32 32" fill="none" xmlns="http://www.w3.org/2000/svg">
<path d="M23.5895 14.8314C23.4517 14.7653 23.3117 14.7017 23.1699 14.6409C22.9229 10.0897 20.436 7.48417 16.2603 7.4575C16.2414 7.45738 16.2226 7.45738 16.2037 7.45738C13.7061 7.45738 11.6289 8.52348 10.3504 10.4635L12.6469 12.0388C13.602 10.5897 15.1009 10.2808 16.2048 10.2808C16.2175 10.2808 16.2303 10.2808 16.243 10.2809C17.6179 10.2897 18.6554 10.6894 19.3269 11.469C19.8155 12.0366 20.1424 12.8208 20.3042 13.8106C19.0852 13.6035 17.7669 13.5397 16.3575 13.6205C12.3875 13.8492 9.8352 16.1647 10.0066 19.382C10.0936 21.014 10.9066 22.418 12.2959 23.3352C13.4704 24.1105 14.9832 24.4897 16.5554 24.4038C18.6317 24.29 20.2605 23.4978 21.3969 22.0493C22.2599 20.9493 22.8057 19.5238 23.0467 17.7277C24.0362 18.3248 24.7695 19.1107 25.1745 20.0553C25.8632 21.6612 25.9034 24.3 23.7502 26.4513C21.8637 28.336 19.596 29.1513 16.1689 29.1765C12.3674 29.1483 9.49232 27.9292 7.62304 25.5528C5.8726 23.3277 4.96797 20.1137 4.93422 16C4.96797 11.8863 5.8726 8.67227 7.62304 6.44712C9.49232 4.07082 12.3673 2.85167 16.1689 2.82342C19.998 2.85188 22.9232 4.0769 24.864 6.46467C25.8157 7.6356 26.5332 9.10813 27.0062 10.8251L29.6974 10.107C29.124 7.9937 28.2219 6.17262 26.9942 4.66233C24.506 1.60111 20.867 0.0325247 16.1783 0H16.1595C11.4803 0.0324117 7.88204 1.60697 5.46474 4.67988C3.31367 7.4144 2.20409 11.2193 2.1668 15.9888L2.16669 16L2.1668 16.0113C2.20409 20.7807 3.31367 24.5857 5.46474 27.3202C7.88204 30.393 11.4803 31.9677 16.1595 32H16.1783C20.3384 31.9712 23.2707 30.882 25.6864 28.4685C28.8469 25.311 28.7517 21.3532 27.71 18.9235C26.9627 17.1812 25.5379 15.766 23.5895 14.8314ZM16.4068 21.5845C14.6668 21.6825 12.8591 20.9015 12.77 19.2287C12.7039 17.9883 13.6527 16.6043 16.5136 16.4395C16.8412 16.4206 17.1627 16.4113 17.4785 16.4113C18.5177 16.4113 19.4899 16.5123 20.3737 16.7055C20.044 20.8225 18.1104 21.491 16.4068 21.5845Z" fill="#4C5452"/>
</svg>
