<svg width="32" height="32" viewBox="0 0 32 32" fill="none" xmlns="http://www.w3.org/2000/svg">
<g clip-path="url(#clip0_54_187)">
<path fill-rule="evenodd" clip-rule="evenodd" d="M16.0004 0.666626C12.202 0.668597 8.52819 2.0139 5.63585 4.46199C2.7435 6.91008 0.821225 10.3013 0.212746 14.0293C-0.395732 17.7573 0.349256 21.5789 2.31451 24.8109C4.27977 28.0428 7.33714 30.4743 10.9399 31.6706C11.7348 31.8181 12.0341 31.3255 12.0341 30.9066C12.0341 30.4878 12.0182 29.2733 12.0129 27.9456C7.56188 28.9071 6.62133 26.0673 6.62133 26.0673C5.89539 24.2232 4.8462 23.7385 4.8462 23.7385C3.39431 22.7532 4.95484 22.7717 4.95484 22.7717C6.56305 22.8849 7.40823 24.4129 7.40823 24.4129C8.83363 26.8444 11.1519 26.141 12.0633 25.7301C12.2064 24.7 12.6223 23.9993 13.0807 23.6015C9.52513 23.2011 5.7894 21.8365 5.7894 15.7405C5.76737 14.1596 6.35738 12.6307 7.43737 11.4702C7.2731 11.0698 6.72466 9.45227 7.59368 7.2552C7.59368 7.2552 8.93696 6.82843 11.9944 8.88588C14.6169 8.17279 17.3838 8.17279 20.0063 8.88588C23.0611 6.82843 24.4018 7.2552 24.4018 7.2552C25.2734 9.447 24.725 11.0645 24.5607 11.4702C25.6441 12.6309 26.2354 14.1624 26.2113 15.7458C26.2113 21.8549 22.4677 23.2011 18.9068 23.5936C19.4791 24.0889 19.9904 25.0557 19.9904 26.5415C19.9904 28.67 19.9719 30.3824 19.9719 30.9066C19.9719 31.3308 20.2607 31.826 21.0714 31.6706C24.6746 30.4742 27.7323 28.0422 29.6975 24.8097C31.6627 21.5772 32.4073 17.755 31.7982 14.0267C31.189 10.2984 29.2658 6.9071 26.3725 4.45943C23.4792 2.01177 19.8045 0.667348 16.0057 0.666626H16.0004Z" fill="#4C5452"/>
<path d="M6.05927 23.5093C6.02483 23.5884 5.89765 23.6121 5.79432 23.5568C5.691 23.5014 5.61417 23.3987 5.65126 23.317C5.68835 23.2354 5.81288 23.2143 5.9162 23.2696C6.01953 23.3249 6.09901 23.4303 6.05927 23.5093Z" fill="#4C5452"/>
<path d="M6.70841 24.2285C6.65354 24.256 6.59076 24.2636 6.53083 24.2502C6.4709 24.2367 6.41754 24.203 6.37988 24.1547C6.27655 24.0441 6.25534 23.8913 6.33483 23.8228C6.41431 23.7543 6.55739 23.7859 6.66072 23.8965C6.76405 24.0072 6.78789 24.16 6.70841 24.2285Z" fill="#4C5452"/>
<path d="M7.33897 25.1427C7.24094 25.2112 7.07402 25.1427 6.98129 25.0057C6.95565 24.9811 6.93526 24.9517 6.92133 24.9191C6.9074 24.8865 6.90021 24.8515 6.90021 24.816C6.90021 24.7806 6.9074 24.7456 6.92133 24.713C6.93526 24.6804 6.95565 24.6509 6.98129 24.6264C7.07932 24.5605 7.24624 24.6264 7.33897 24.7607C7.4317 24.8951 7.43435 25.0742 7.33897 25.1427Z" fill="#4C5452"/>
<path d="M8.19474 26.0277C8.10731 26.1252 7.9298 26.0989 7.78408 25.9672C7.63836 25.8354 7.60391 25.6563 7.69134 25.5615C7.77877 25.4666 7.95628 25.493 8.1073 25.6221C8.25832 25.7511 8.28747 25.9329 8.19474 26.0277Z" fill="#4C5452"/>
<path d="M9.39488 26.5441C9.35514 26.668 9.17497 26.7233 8.99481 26.6706C8.81465 26.6179 8.69542 26.4704 8.72987 26.3439C8.76431 26.2175 8.94712 26.1595 9.12993 26.2175C9.31275 26.2754 9.42932 26.4151 9.39488 26.5441Z" fill="#4C5452"/>
<path d="M10.7038 26.6337C10.7038 26.7628 10.5554 26.8735 10.3647 26.8761C10.1739 26.8787 10.0176 26.7734 10.0176 26.6443C10.0176 26.5152 10.1659 26.4045 10.3567 26.4019C10.5475 26.3993 10.7038 26.502 10.7038 26.6337Z" fill="#4C5452"/>
<path d="M11.9225 26.4309C11.9464 26.56 11.8139 26.6943 11.6232 26.7259C11.4324 26.7576 11.2655 26.6812 11.2416 26.5547C11.2178 26.4283 11.3556 26.2913 11.541 26.257C11.7265 26.2228 11.8987 26.3018 11.9225 26.4309Z" fill="#4C5452"/>
</g>
<defs>
<clipPath id="clip0_54_187">
<rect width="32" height="32" fill="white"/>
</clipPath>
</defs>
</svg>
