<svg width="20" height="20" viewBox="0 0 20 20" fill="none" xmlns="http://www.w3.org/2000/svg">
<path fill-rule="evenodd" clip-rule="evenodd" d="M7.29303 14.7069C7.10556 14.5193 7.00024 14.265 7.00024 13.9999C7.00024 13.7347 7.10556 13.4804 7.29303 13.2929L10.586 9.99986L7.29303 6.70686C7.11087 6.51826 7.01008 6.26565 7.01236 6.00346C7.01463 5.74126 7.1198 5.49045 7.30521 5.30504C7.49062 5.11963 7.74143 5.01446 8.00363 5.01218C8.26583 5.00991 8.51843 5.1107 8.70703 5.29286L12.707 9.29286C12.8945 9.48039 12.9998 9.73469 12.9998 9.99986C12.9998 10.265 12.8945 10.5193 12.707 10.7069L8.70703 14.7069C8.5195 14.8943 8.26519 14.9996 8.00003 14.9996C7.73487 14.9996 7.48056 14.8943 7.29303 14.7069Z" fill="#69D3BD"/>
</svg>
