<svg width="23" height="32" viewBox="0 0 23 32" fill="none" xmlns="http://www.w3.org/2000/svg">
<path d="M17.0987 13.276C18.08 10.6103 18.8454 8.40938 19.3947 6.67338C19.744 5.75872 20.0307 4.68138 20.2067 3.56805L20.2187 3.47472L20.2214 3.37872C20.2214 3.04538 20.1174 2.73605 19.94 2.48138L19.944 2.48672C19.8592 2.3768 19.7503 2.28779 19.6258 2.22654C19.5012 2.16529 19.3642 2.13342 19.2254 2.13338L19.184 2.13472H19.1854C18.7756 2.13472 18.3582 2.47516 17.9334 3.15605C17.3974 4.09338 16.92 5.18138 16.56 6.32005L16.5267 6.44005L14.3307 12.7894L17.0987 13.276ZM14.1774 19.1854C13.5489 19.1581 12.923 19.0882 12.304 18.976L12.3867 18.988C11.8136 18.8868 11.2512 18.7323 10.7067 18.5267L10.772 18.548C11.0058 19.0174 11.2143 19.4863 11.3974 19.9547C11.548 20.32 11.7014 20.7827 11.828 21.2547L11.848 21.34C12.1987 20.9027 12.5614 20.512 12.9507 20.1494L12.9574 20.1427C13.3214 19.8014 13.72 19.4867 14.1427 19.204L14.176 19.1827L14.1774 19.1854ZM11.696 12.5294L9.32403 5.67472C8.94173 4.4571 8.44577 3.27813 7.8427 2.15338L7.89603 2.26272C7.55914 1.72849 7.19292 1.46138 6.79736 1.46138H6.77336C6.63442 1.46139 6.4973 1.49296 6.37234 1.5537C6.24738 1.61445 6.13786 1.70279 6.05203 1.81205L6.0507 1.81338C5.84653 2.08573 5.74544 2.42159 5.76536 2.76138V2.75738C5.8827 4.05338 6.1547 5.24805 6.56536 6.37472L6.53336 6.27605C7.04625 7.94538 7.81514 10.1352 8.84003 12.8454C8.91959 12.6931 9.04972 12.5734 9.20803 12.5067L9.21336 12.5054C9.42579 12.4299 9.65084 12.3964 9.87603 12.4067H9.87203C9.96003 12.4067 10.136 12.4143 10.4 12.4294C10.664 12.4445 11.096 12.48 11.696 12.536V12.5294ZM9.5427 23.14C9.67382 23.1363 9.80257 23.1041 9.92 23.0456C10.0374 22.9871 10.1407 22.9038 10.2227 22.8014L10.224 22.8C10.4161 22.6031 10.5258 22.3404 10.5307 22.0654V22.064C10.4151 21.375 10.2051 20.7051 9.9067 20.0734L9.9267 20.12C9.46003 18.9587 8.95603 17.9734 8.3747 17.0387L8.4227 17.1214C8.0761 16.5083 7.64022 15.9502 7.12936 15.4654L7.1267 15.4627C6.80759 15.1363 6.38054 14.9372 5.92536 14.9027H5.9187C5.51612 14.9537 5.14999 15.1617 4.90003 15.4814L4.89736 15.4854C4.57955 15.761 4.37959 16.148 4.3387 16.5667V16.5734C4.41203 17.1667 4.6067 17.7027 4.89736 18.172L4.88803 18.1547C5.34803 19.0067 5.83736 19.74 6.38403 20.424L6.36136 20.3947C6.8892 21.1306 7.49641 21.8063 8.17203 22.4094L8.18403 22.42C8.5387 22.788 9.00536 23.0467 9.52936 23.1387L9.54403 23.1414L9.5427 23.14ZM2.95203 22.6134C3.15647 22.8632 3.44092 23.2294 3.80536 23.712C4.77247 25.0445 5.66581 25.7107 6.48536 25.7107H6.4947C6.76471 25.711 7.02637 25.6172 7.2347 25.4454L7.23336 25.4467C7.3261 25.3865 7.40394 25.306 7.461 25.2113C7.51805 25.1166 7.55283 25.0102 7.5627 24.9V24.8974C7.4979 24.4997 7.34581 24.1213 7.11736 23.7894L7.1227 23.7987C6.7307 23.1387 6.33203 22.572 5.8947 22.0374L5.9147 22.0627C5.47592 21.4797 4.98935 20.9343 4.46003 20.432L4.4547 20.4267C4.2132 20.1605 3.89087 19.9811 3.53736 19.916L3.5267 19.9147C2.93336 19.9507 2.42003 20.268 2.11336 20.732L2.10936 20.7387C1.67371 21.2931 1.44461 21.9818 1.46136 22.6867V22.684C1.4827 23.416 1.6467 24.1027 1.92536 24.728L1.91203 24.6934C2.27336 25.5454 2.71203 26.2787 3.2347 26.944L3.2187 26.924C4.04974 28.0441 5.13574 28.95 6.3867 29.5667L6.43736 29.5894C7.72594 30.2091 9.1382 30.5286 10.568 30.524L10.6947 30.5227H10.688L10.8507 30.524C12.1779 30.5255 13.49 30.2414 14.6978 29.6911C15.9055 29.1408 16.9808 28.3372 17.8507 27.3347L17.86 27.324C19.8218 25.121 20.8569 22.2453 20.7494 19.2974V19.316L20.752 19.068C20.752 18.3267 20.6707 17.6054 20.5174 16.9107L20.5294 16.9774C20.4351 16.4884 20.1809 16.0447 19.8067 15.716L19.804 15.7134C18.7589 15.0341 17.5837 14.58 16.3534 14.38L16.3014 14.3734C14.5469 13.9738 12.7527 13.7747 10.9534 13.78H10.8587H10.864C10.469 13.7441 10.0731 13.8377 9.73603 14.0467L9.74403 14.0427C9.62331 14.1582 9.53081 14.2999 9.4737 14.4569C9.41659 14.6139 9.3964 14.782 9.41469 14.948V14.9427C9.41949 15.4332 9.58323 15.9088 9.88134 16.2983C10.1795 16.6878 10.5959 16.97 11.068 17.1027L11.084 17.1067C12.4627 17.5454 14.048 17.7974 15.6934 17.7974C15.9734 17.7974 16.252 17.7907 16.528 17.776L16.4894 17.7774H17.408C17.6 17.7774 17.772 17.8667 17.8827 18.0067L17.884 18.008C18.0227 18.2027 18.1134 18.4387 18.136 18.6947V18.7C17.696 19.036 17.1867 19.308 16.6347 19.4907L16.5974 19.5014C15.9174 19.748 15.3294 20.048 14.788 20.4107L14.8174 20.392C13.9754 21.0006 13.261 21.7685 12.7147 22.6521L12.6947 22.6854C12.2021 23.4313 11.9248 24.2987 11.8934 25.192V25.2014C11.916 25.8347 12.0387 26.4307 12.2467 26.9867L12.2334 26.948C12.3787 27.3107 12.4974 27.736 12.5694 28.176L12.5747 28.2107V28.364L12.5307 28.5614C12.2001 28.5281 11.8844 28.4067 11.6166 28.21C11.3488 28.0132 11.1387 27.7483 11.008 27.4427L11.004 27.4307C10.5877 26.5381 10.3959 25.5571 10.4454 24.5734V24.5867V24.3894C10.3475 24.4793 10.2353 24.5523 10.1134 24.6054L10.1054 24.608C9.99324 24.6521 9.87384 24.6747 9.75336 24.6747H9.73336C9.60403 24.6747 9.4787 24.6627 9.35603 24.64L9.36803 24.6414C9.22509 24.6145 9.08393 24.5789 8.94536 24.5347L8.97203 24.5427C9.00936 24.6707 9.04403 24.8307 9.06803 24.9934L9.07069 25.0147C9.08803 25.1214 9.10003 25.2467 9.10403 25.3734V25.384C9.10403 25.9387 8.85736 26.4347 8.46669 26.7694L8.46403 26.772C8.07736 27.1334 7.55603 27.3547 6.98403 27.3547H6.9467H6.94803C5.87249 27.2856 4.86556 26.8025 4.1387 26.0067L4.13603 26.004C3.73126 25.6856 3.3959 25.2877 3.15056 24.8348C2.90522 24.382 2.75507 23.8837 2.70936 23.3707L2.70803 23.356V23.3374C2.70803 23.192 2.72803 23.052 2.7667 22.9187L2.76403 22.9294C2.79789 22.8085 2.86216 22.6984 2.9507 22.6094L2.95203 22.6134ZM18.6827 13.6494C19.2369 13.7141 19.7712 13.8952 20.2505 14.1808C20.7298 14.4664 21.1433 14.8501 21.464 15.3067L21.472 15.3187C22.1113 16.5901 22.3916 18.0118 22.2827 19.4307L22.284 19.4054C22.351 21.0626 22.0907 22.7168 21.5181 24.2735C20.9454 25.8301 20.0717 27.2586 18.9467 28.4774L18.9547 28.468C17.8662 29.6297 16.5419 30.5453 15.0706 31.1533C13.5993 31.7613 12.0151 32.0477 10.424 31.9934H10.4414H10.432C9.05261 31.9947 7.68526 31.7364 6.40136 31.232L6.47603 31.2574C5.24655 30.7981 4.12104 30.0983 3.16536 29.1987L3.1707 29.2027C2.21152 28.3525 1.41657 27.3333 0.825363 26.196L0.798696 26.1387C0.280339 25.1144 0.00952793 23.9827 0.00802944 22.8347V22.8334C-0.0590771 21.7897 0.231055 20.7542 0.830696 19.8974L0.821363 19.912C1.47914 19.1599 2.38073 18.6633 3.36803 18.5094L3.39203 18.5067C3.21426 18.112 3.06065 17.7068 2.93203 17.2934L2.90936 17.2107C2.82141 16.9506 2.76938 16.6796 2.7547 16.4054V16.3974C2.7843 16.0079 2.89156 15.6283 3.07018 15.2809C3.24879 14.9335 3.49514 14.6254 3.7947 14.3747L3.7987 14.3707C4.28136 13.7987 4.97203 13.416 5.75336 13.34L5.76536 13.3387C6.06536 13.3427 6.35203 13.3947 6.6187 13.4867L6.60003 13.4814C6.98803 13.6187 7.3227 13.7774 7.6347 13.968L7.6107 13.9547C6.4827 10.7618 5.66225 8.29783 5.14936 6.56272C4.77736 5.51472 4.50536 4.29605 4.38536 3.03205L4.38003 2.97072C4.33634 2.18409 4.58894 1.40964 5.08803 0.800049L5.08403 0.805382C5.32344 0.537051 5.61995 0.325784 5.95175 0.187111C6.28355 0.0484385 6.64221 -0.0141152 7.00136 0.00404871H6.99603C8.37203 0.00404871 10.1134 3.0796 12.22 9.23072C12.5863 10.2858 12.8645 11.0987 13.0547 11.6694C13.2165 11.216 13.4436 10.5716 13.736 9.73605C15.8454 3.64272 17.6614 0.596049 19.184 0.596049L19.2787 0.594715C19.952 0.594715 20.556 0.888049 20.972 1.35205L20.9734 1.35472C21.4489 1.92519 21.6908 2.65448 21.6507 3.39605V3.38938C21.5307 4.69472 21.2707 5.89472 20.8827 7.03605L20.9147 6.92538C20.4231 8.63916 19.68 10.8783 18.6854 13.6427L18.6827 13.6494Z" fill="#4C5452"/>
</svg>
