<svg width="128" height="128" viewBox="0 0 128 128" fill="none" xmlns="http://www.w3.org/2000/svg">
<path d="M38.616 62C37.784 62 37.112 61.808 36.6 61.424C36.12 61.04 35.88 60.576 35.88 60.032V28.928C35.88 28.256 36.168 27.76 36.744 27.44C37.32 27.088 37.944 26.912 38.616 26.912H47.928C49.56 26.912 51.112 27.152 52.584 27.632C54.056 28.08 55.256 28.912 56.184 30.128C57.112 31.344 57.576 33.088 57.576 35.36C57.576 37.312 57.208 38.944 56.472 40.256C55.736 41.536 54.744 42.448 53.496 42.992C54.488 43.344 55.352 43.84 56.088 44.48C56.824 45.088 57.4 45.904 57.816 46.928C58.232 47.92 58.44 49.216 58.44 50.816V51.824C58.44 54.32 58.008 56.32 57.144 57.824C56.312 59.296 55.16 60.368 53.688 61.04C52.248 61.68 50.632 62 48.84 62H38.616ZM42.12 56.528H47.496C48.968 56.528 50.12 56.112 50.952 55.28C51.784 54.448 52.2 53.12 52.2 51.296V50.528C52.2 48.64 51.784 47.328 50.952 46.592C50.12 45.824 48.968 45.44 47.496 45.44H42.12V56.528ZM42.12 40.544H47.496C48.808 40.544 49.768 40.16 50.376 39.392C51.016 38.624 51.336 37.632 51.336 36.416C51.336 35.552 51.176 34.832 50.856 34.256C50.536 33.648 50.088 33.184 49.512 32.864C48.936 32.544 48.248 32.384 47.448 32.384H42.12V40.544Z" fill="#69D3BD"/>
<path d="M46.584 103.288C44.6 103.288 42.76 102.936 41.064 102.232C39.368 101.496 38.008 100.328 36.984 98.728C35.992 97.096 35.496 94.936 35.496 92.248V78.952C35.496 76.264 35.992 74.12 36.984 72.52C38.008 70.888 39.368 69.72 41.064 69.016C42.76 68.28 44.616 67.912 46.632 67.912C48.872 67.912 50.84 68.296 52.536 69.064C54.264 69.8 55.608 70.84 56.568 72.184C57.56 73.528 58.056 75.144 58.056 77.032C58.056 78.28 57.8 79.112 57.288 79.528C56.776 79.912 55.992 80.104 54.936 80.104C54.072 80.104 53.336 79.96 52.728 79.672C52.152 79.352 51.848 78.84 51.816 78.136C51.816 77.752 51.752 77.304 51.624 76.792C51.528 76.248 51.32 75.72 51 75.208C50.68 74.696 50.184 74.264 49.512 73.912C48.872 73.56 47.976 73.384 46.824 73.384C45.192 73.384 43.944 73.848 43.08 74.776C42.216 75.672 41.784 77.064 41.784 78.952V92.248C41.784 94.168 42.216 95.576 43.08 96.472C43.976 97.368 45.256 97.816 46.92 97.816C48.008 97.816 48.872 97.64 49.512 97.288C50.152 96.936 50.616 96.504 50.904 95.992C51.224 95.448 51.432 94.888 51.528 94.312C51.656 93.736 51.752 93.192 51.816 92.68C51.88 91.912 52.2 91.4 52.776 91.144C53.352 90.856 54.056 90.712 54.888 90.712C55.976 90.712 56.776 90.92 57.288 91.336C57.8 91.752 58.056 92.568 58.056 93.784C58.056 95.704 57.56 97.384 56.568 98.824C55.608 100.264 54.264 101.368 52.536 102.136C50.808 102.904 48.824 103.288 46.584 103.288Z" fill="#69D3BD"/>
<path d="M80.728 62C79.96 62 79.24 61.84 78.568 61.52C77.928 61.168 77.608 60.656 77.608 59.984V47.936C77.608 47.68 77.56 47.472 77.464 47.312L67.528 30.128C67.464 30 67.416 29.888 67.384 29.792C67.384 29.664 67.384 29.568 67.384 29.504C67.384 28.992 67.608 28.544 68.056 28.16C68.504 27.776 69.048 27.472 69.688 27.248C70.328 27.024 70.936 26.912 71.512 26.912C72.024 26.912 72.408 27.024 72.664 27.248C72.92 27.44 73.16 27.744 73.384 28.16L80.728 42.032L88.024 28.16C88.28 27.744 88.536 27.44 88.792 27.248C89.048 27.024 89.432 26.912 89.944 26.912C90.52 26.912 91.112 27.024 91.72 27.248C92.36 27.472 92.904 27.776 93.352 28.16C93.832 28.544 94.072 28.992 94.072 29.504C94.072 29.568 94.056 29.664 94.024 29.792C94.024 29.888 93.992 30 93.928 30.128L83.992 47.312C83.896 47.472 83.848 47.68 83.848 47.936V59.984C83.848 60.656 83.512 61.168 82.84 61.52C82.2 61.84 81.496 62 80.728 62Z" fill="#69D3BD"/>
<path d="M80.776 103.288C78.664 103.288 76.76 102.936 75.064 102.232C73.368 101.496 72.008 100.328 70.984 98.728C69.992 97.096 69.496 94.936 69.496 92.248V78.952C69.496 76.264 69.992 74.12 70.984 72.52C72.008 70.888 73.352 69.72 75.016 69.016C76.712 68.28 78.568 67.912 80.584 67.912C82.824 67.912 84.792 68.28 86.488 69.016C88.216 69.752 89.576 70.808 90.568 72.184C91.56 73.56 92.056 75.208 92.056 77.128C92.056 78.312 91.8 79.112 91.288 79.528C90.776 79.912 89.992 80.104 88.936 80.104C88.104 80.104 87.384 79.96 86.776 79.672C86.168 79.384 85.848 78.872 85.816 78.136C85.784 77.368 85.624 76.632 85.336 75.928C85.08 75.192 84.6 74.584 83.896 74.104C83.224 73.624 82.184 73.384 80.776 73.384C79.208 73.384 77.976 73.848 77.08 74.776C76.216 75.672 75.784 77.064 75.784 78.952V92.248C75.784 94.136 76.216 95.544 77.08 96.472C77.976 97.368 79.208 97.816 80.776 97.816C82.344 97.816 83.576 97.368 84.472 96.472C85.368 95.544 85.816 94.136 85.816 92.248V89.464H81.928C81.32 89.464 80.84 89.208 80.488 88.696C80.168 88.184 80.008 87.624 80.008 87.016C80.008 86.408 80.168 85.848 80.488 85.336C80.84 84.824 81.32 84.568 81.928 84.568H90.088C90.728 84.568 91.208 84.776 91.528 85.192C91.88 85.576 92.056 86.056 92.056 86.632V92.248C92.056 94.936 91.56 97.096 90.568 98.728C89.576 100.328 88.216 101.496 86.488 102.232C84.792 102.936 82.888 103.288 80.776 103.288Z" fill="#69D3BD"/>
<rect x="3.5" y="3.5" width="121" height="121" rx="14.5" stroke="#69D3BD" stroke-width="7"/>
</svg>
